#!OML:ASF I:\Actors\actors\Patient Classification 1\Patient 1\Session 1\Subject1.ASF
:FULLY-SPECIFIED
:DEGREES
293
root -0.344268 17.603 8.28483 10.2515 -14.5135 -7.85476
lowerback 2.42295 0.335546 3.08744
upperback -9.55933 0.748246 0.813049
thorax -11.5738 0.106263 -0.936315
lowerneck -15.5851 0.215312 2.93993
upperneck 16.1309 -2.14597 8.86443
head 7.65801 0.00450248 2.2037
rclavicle 4.36332e-014 3.18055e-015
rhumerus 50.7658 26.9668 -78.2556
rradius 59.9662
rwrist -19.7203
rhand 1.37897 -55.0243
rfingers 7.12502
rthumb 26.9105 -83.1285
lclavicle 4.36332e-014 3.18055e-015
lhumerus 49.1624 -14.2739 70.3998
lradius 52.3167
lwrist 0.353521
lhand -47.9261 -64.4491
lfingers 7.12502
lthumb -20.5974 -35.5219
rfemur -7.20451 22.4291 23.5704
rtibia 8.10796
rfoot -11.2956 -12.1752
rtoes -8.28711
lfemur 3.90985 -30.0177 -13.8192
ltibia -1.73599
lfoot -20.2555 44.1354
ltoes 9.2514
294
root -0.33619 17.6073 8.29143 10.3376 -14.6682 -7.77935
lowerback 2.27668 0.356925 2.94613
upperback -9.53591 0.76299 0.862047
thorax -11.4574 0.13096 -0.805478
lowerneck -15.6312 0.253398 2.85843
upperneck 16.0364 -2.04423 8.74623
head 7.62905 0.0340177 2.18805
rclavicle 3.66758e-014 3.97569e-014
rhumerus 52.7851 26.9309 -74.2097
rradius 59.4021
rwrist -16.4235
rhand 4.96715 -56.049
rfingers 7.12502
rthumb 30.3386 -83.5744
lclavicle 3.66758e-014 3.97569e-014
lhumerus 49.292 -14.1566 70.5569
lradius 51.8151
lwrist 0.287207
lhand -48.2155 -64.2551
lfingers 7.12502
lthumb -20.8754 -35.3583
rfemur -7.30156 22.568 23.3953
rtibia 8.09638
rfoot -11.3452 -12.1509
rtoes -7.9633
lfemur 3.96918 -30.2162 -13.9853
ltibia -1.89041
lfoot -20.4062 44.3967
ltoes 9.48005
295
root -0.328755 17.6113 8.29849 10.4907 -14.6188 -7.76748
lowerback 2.12725 0.272297 2.86864
upperback -9.5965 0.643526 0.93997
thorax -11.4411 0.0838495 -0.662762
lowerneck -15.5508 0.342741 2.81366
upperneck 15.9234 -1.8768 8.6534
head 7.56987 0.0957592 2.18084
rclavicle -4.64162e-014 -2.38542e-015
rhumerus 55.0208 26.9629 -69.431
rradius 58.995
rwrist -13.4396
rhand 7.73377 -55.4934
rfingers 7.12502
rthumb 32.9739 -82.4991
lclavicle -4.64162e-014 -2.38542e-015
lhumerus 49.2782 -13.951 70.6194
lradius 51.3205
lwrist 0.0356357
lhand -48.4599 -64.2908
lfingers 7.12502
lthumb -21.1102 -35.42
rfemur -7.4304 22.6186 23.2873
rtibia 8.05879
rfoot -11.3749 -12.2253
rtoes -7.69925
lfemur 3.85774 -30.3992 -13.9638
ltibia -1.98173
lfoot -20.3167 44.5149
ltoes 9.40923
296
root -0.321805 17.6146 8.30776 10.6452 -14.4269 -7.79628
lowerback 2.51065 0.113785 2.91608
upperback -10.0738 0.459103 0.972732
thorax -12.2387 -0.0232043 -0.628542
lowerneck -15.1355 0.4107 2.78713
upperneck 16.1323 -1.77348 8.66468
head 7.56169 0.142465 2.20008
rclavicle -3.77691e-014 1.59028e-014
rhumerus 56.7242 27.0252 -64.5986
rradius 59.1013
rwrist -10.6103
rhand 11.3133 -54.9852
rfingers 7.12502
rthumb 36.3709 -81.2097
lclavicle -3.77691e-014 1.59028e-014
lhumerus 48.5668 -13.9502 70.6841
lradius 50.8586
lwrist -0.156866
lhand -48.437 -64.6202
lfingers 7.12502
lthumb -21.0882 -35.747
rfemur -7.50584 22.6141 23.2494
rtibia 7.96464
rfoot -11.3589 -12.3863
rtoes -7.44679
lfemur 3.71038 -30.6519 -13.8831
ltibia -2.03643
lfoot -20.3074 44.602
ltoes 9.50407
297
root -0.315142 17.6174 8.31868 10.7057 -14.1339 -7.84835
lowerback 2.06866 -0.203507 2.70456
upperback -9.86662 0.0180582 1.28451
thorax -11.7378 -0.190854 -0.121248
lowerneck -15.1597 0.654174 2.66791
upperneck 15.9541 -1.36066 8.48407
head 7.48977 0.308751 2.20214
rclavicle -1.19271e-015 2.06736e-014
rhumerus 59.9057 26.6414 -58.7758
rradius 59.2303
rwrist -9.38861
rhand 14.3915 -54.6174
rfingers 7.12502
rthumb 39.2785 -80.0571
lclavicle -1.19271e-015 2.06736e-014
lhumerus 48.7538 -13.0437 70.7028
lradius 50.4734
lwrist -0.0620315
lhand -48.1896 -64.4774
lfingers 7.12502
lthumb -20.8506 -35.5778
rfemur -7.41361 22.5999 23.3024
rtibia 7.80111
rfoot -11.361 -12.6328
rtoes -7.29037
lfemur 3.72336 -31.1243 -13.8633
ltibia -2.14068
lfoot -20.3379 44.8174
ltoes 9.63289
298
root -0.3089 17.6187 8.33123 10.6966 -13.7487 -7.94515
lowerback 2.11586 -0.471931 2.74545
upperback -9.94935 -0.324427 1.44573
thorax -11.8715 -0.353061 0.0743339
lowerneck -14.9639 0.801111 2.57216
upperneck 15.9834 -1.11733 8.43175
head 7.45522 0.410661 2.22528
rclavicle 1.23246e-014 -1.15295e-014
rhumerus 62.0766 25.8164 -53.6757
rradius 59.749
rwrist -8.99906
rhand 17.2452 -54.7739
rfingers 7.12502
rthumb 41.9607 -79.3771
lclavicle 1.23246e-014 -1.15295e-014
lhumerus 48.6143 -12.5896 70.7488
lradius 50.015
lwrist -0.23263
lhand -47.9927 -61.629
lfingers 7.12502
lthumb -20.6614 -32.7088
rfemur -7.17331 22.5927 23.4638
rtibia 7.57644
rfoot -11.3908 -12.9711
rtoes -6.8712
lfemur 3.90223 -31.7915 -13.8706
ltibia -2.32627
lfoot -20.3295 45.1402
ltoes 9.60845
299
root -0.303064 17.6187 8.34563 10.724 -13.3091 -7.96185
lowerback 2.0692 -0.727319 2.70433
upperback -10.0492 -0.662678 1.57371
thorax -11.9642 -0.506887 0.279332
lowerneck -14.8092 0.943183 2.62128
upperneck 16.0863 -0.884893 8.18114
head 7.45089 0.501602 2.15933
rclavicle 1.64991e-014 1.59028e-015
rhumerus 63.7133 24.6291 -49.178
rradius 60.5877
rwrist -8.57841
rhand 20.1693 -54.5643
rfingers 7.12502
rthumb 44.6927 -78.1839
lclavicle 1.64991e-014 1.59028e-015
lhumerus 48.5357 -12.2154 70.8296
lradius 49.1791
lwrist -1.0979
lhand -48.3151 -61.4069
lfingers 7.12502
lthumb -20.9712 -32.5206
rfemur -6.98831 22.5778 23.5259
rtibia 7.35072
rfoot -11.386 -13.3845
rtoes -6.46945
lfemur 3.99361 -32.472 -13.9237
ltibia -2.47673
lfoot -20.4354 45.381
ltoes 9.66964
